<svg width="123" height="30" viewBox="0 0 123 30" fill="none" xmlns="http://www.w3.org/2000/svg">
<rect x="10.789" y="9.88635" width="5.11364" height="5.11364" fill="#4CE0D2"/>
<rect x="15.9026" y="15" width="5.11364" height="5.11364" fill="#4CE0D2"/>
<path fill-rule="evenodd" clip-rule="evenodd" d="M15.9026 27.2727C18.4119 27.2727 20.7452 26.5197 22.689 25.2273H26.1298V21.7866C27.4223 19.8427 28.1754 17.5093 28.1754 15C28.1754 8.22196 22.6807 2.72727 15.9026 2.72727C13.3934 2.72727 11.0601 3.4803 9.11628 4.77271H5.67535V8.21363C4.38295 10.1574 3.62992 12.4908 3.62992 15C3.62992 21.778 9.12461 27.2727 15.9026 27.2727ZM15.9026 30C24.1869 30 30.9026 23.2843 30.9026 15C30.9026 6.71573 24.1869 0 15.9026 0C7.61838 0 0.902649 6.71573 0.902649 15C0.902649 23.2843 7.61838 30 15.9026 30Z" fill="#86E1FF"/>
<path fill-rule="evenodd" clip-rule="evenodd" d="M55.1546 7.35609C55.4146 7.71609 55.9146 7.88609 56.6546 7.86609C57.3746 7.86609 57.8546 7.69609 58.0946 7.35609C58.3546 6.99609 58.4846 6.54609 58.4846 6.00609C58.4846 5.50609 58.3546 5.07609 58.0946 4.71609C57.8546 4.35609 57.3746 4.17609 56.6546 4.17609C55.9146 4.17609 55.4146 4.35609 55.1546 4.71609C54.9146 5.07609 54.7946 5.50609 54.7946 6.00609C54.7946 6.52609 54.9146 6.97609 55.1546 7.35609ZM54.8546 9.27609V21.6361H58.4846V9.27609H54.8546ZM40.1645 20.2561C40.9045 21.3761 42.2045 21.9361 44.0645 21.9361C44.7845 21.9361 45.3945 21.8261 45.8945 21.6061C46.4145 21.3861 46.8245 21.1361 47.1245 20.8561C47.4445 20.5761 47.6745 20.3261 47.8145 20.1061C47.9745 19.8661 48.0545 19.7261 48.0545 19.6861H48.1145L48.6845 21.6361H51.8645V4.74609H48.1145V11.7361H48.0545C48.0545 11.7161 47.9845 11.5861 47.8445 11.3461C47.7245 11.0861 47.5145 10.7961 47.2145 10.4761C46.9145 10.1561 46.5045 9.87609 45.9845 9.63609C45.4845 9.39609 44.8445 9.27609 44.0645 9.27609C42.2445 9.27609 40.9545 9.84609 40.1945 10.9861C39.4545 12.1261 39.0845 13.6961 39.0845 15.6961C39.0845 17.5961 39.4445 19.1161 40.1645 20.2561ZM47.5445 17.9761C47.1845 18.5961 46.4545 18.9061 45.3545 18.9061C44.5745 18.9061 43.9845 18.7561 43.5845 18.4561C43.2045 18.1361 42.9445 17.7361 42.8045 17.2561C42.6845 16.7561 42.6245 16.2261 42.6245 15.6661C42.6245 15.1261 42.6945 14.6161 42.8345 14.1361C42.9745 13.6361 43.2445 13.2361 43.6445 12.9361C44.0445 12.6161 44.6245 12.4561 45.3845 12.4561C46.4845 12.4561 47.2145 12.7761 47.5745 13.4161C47.9345 14.0361 48.1145 14.7861 48.1145 15.6661C48.1145 16.5661 47.9245 17.3361 47.5445 17.9761ZM64.7143 25.8211V23.1953H69.7843V19.6861H69.7243C69.7043 19.7261 69.6243 19.8661 69.4843 20.1061C69.3643 20.3261 69.1443 20.5761 68.8243 20.8561C68.5243 21.1361 68.1243 21.3861 67.6243 21.6061C67.1443 21.8261 66.5343 21.9361 65.7943 21.9361C63.9543 21.9361 62.6543 21.3661 61.8943 20.2261C61.1543 19.0861 60.7843 17.5661 60.7843 15.6661C60.7843 13.6661 61.1643 12.1061 61.9243 10.9861C62.6843 9.84609 63.9743 9.27609 65.7943 9.27609C66.5743 9.27609 67.2143 9.39609 67.7143 9.63609C68.2143 9.87609 68.6043 10.1561 68.8843 10.4761C69.1843 10.7961 69.3943 11.0861 69.5143 11.3461C69.6343 11.5861 69.7043 11.7161 69.7243 11.7361H69.7843V9.27609H73.5043V22.1461C73.5043 24.1261 73.2736 24.4061 72.4936 25.1461C71.786 25.8355 70.6183 25.8296 69.2281 25.8225C69.0857 25.8218 68.9411 25.8211 68.7943 25.8211H64.7143ZM66.9943 18.9061C68.0943 18.9061 68.8243 18.5961 69.1843 17.9761C69.5643 17.3361 69.7543 16.5661 69.7543 15.6661C69.7543 14.7861 69.5743 14.0361 69.2143 13.4161C68.8543 12.7761 68.1343 12.4561 67.0543 12.4561C66.2743 12.4561 65.6843 12.6161 65.2843 12.9361C64.9043 13.2361 64.6443 13.6361 64.5043 14.1361C64.3643 14.6161 64.2943 15.1261 64.2943 15.6661C64.2943 16.2261 64.3543 16.7561 64.4743 17.2561C64.6143 17.7361 64.8743 18.1361 65.2543 18.4561C65.6543 18.7561 66.2343 18.9061 66.9943 18.9061ZM76.4242 7.35609C76.6842 7.71609 77.1842 7.88609 77.9242 7.86609C78.6442 7.86609 79.1242 7.69609 79.3642 7.35609C79.6242 6.99609 79.7542 6.54609 79.7542 6.00609C79.7542 5.50609 79.6242 5.07609 79.3642 4.71609C79.1242 4.35609 78.6442 4.17609 77.9242 4.17609C77.1842 4.17609 76.6842 4.35609 76.4242 4.71609C76.1842 5.07609 76.0642 5.50609 76.0642 6.00609C76.0642 6.52609 76.1842 6.97609 76.4242 7.35609ZM76.1242 9.27609V21.6361H79.7542V9.27609H76.1242ZM82.9026 4.17609V21.8619H89.4374C90.2622 21.8619 91.087 21.8096 91.9118 21.7049C92.7365 21.6002 93.4873 21.3907 94.1641 21.0766C94.8619 20.7625 95.4118 20.3017 95.8136 19.6944C96.2366 19.0871 96.4481 18.2703 96.4481 17.2442C96.4481 16.4693 96.3 15.7468 96.004 15.0766C95.7079 14.4065 95.158 13.8724 94.3544 13.4745C93.5719 13.0557 92.4405 12.8358 90.9601 12.8148V12.7206C92.229 12.6996 93.2018 12.5112 93.8785 12.1551C94.5764 11.7991 95.0523 11.3384 95.3061 10.7729C95.5598 10.1866 95.6867 9.55828 95.6867 8.88813C95.6867 7.86195 95.4964 7.0452 95.1157 6.43787C94.7351 5.80959 94.2275 5.33839 93.593 5.02425C92.9586 4.68918 92.2396 4.46928 91.4359 4.36457C90.6534 4.23891 89.8498 4.17609 89.025 4.17609H82.9026ZM88.8981 12.1237H84.3301V5.43263H88.9299C89.8604 5.43263 90.7275 5.50593 91.5311 5.65253C92.3347 5.79912 92.9797 6.12373 93.4662 6.62635C93.9526 7.10802 94.1958 7.88289 94.1958 8.95096C94.1958 9.89336 93.9737 10.5949 93.5296 11.0557C93.1066 11.4955 92.4933 11.7887 91.6897 11.9352C90.9072 12.0609 89.9767 12.1237 88.8981 12.1237ZM89.374 20.6368H84.3301V13.3489H88.9299C90.0296 13.3489 91.0341 13.4536 91.9435 13.663C92.874 13.8515 93.6036 14.218 94.1323 14.7625C94.6822 15.286 94.9571 16.0818 94.9571 17.1499C94.9571 18.1551 94.7033 18.9091 94.1958 19.4117C93.7094 19.9143 93.0432 20.2494 92.1973 20.4169C91.3513 20.5635 90.4102 20.6368 89.374 20.6368ZM99.4424 7.47451C99.5693 7.68394 99.8125 7.77818 100.172 7.75724C100.51 7.75724 100.743 7.663 100.87 7.47451C100.997 7.28603 101.06 7.03472 101.06 6.72059C101.06 6.44834 100.997 6.21797 100.87 6.02949C100.743 5.84101 100.51 5.74677 100.172 5.74677C99.8125 5.74677 99.5693 5.84101 99.4424 6.02949C99.3155 6.21797 99.252 6.44834 99.252 6.72059C99.252 7.01378 99.3155 7.26509 99.4424 7.47451ZM99.4106 9.10802V21.8619H100.838V9.10802H99.4106ZM107.05 21.8619C106.374 21.8619 105.94 21.6735 105.75 21.2965C105.559 20.9195 105.464 20.4693 105.464 19.9457V10.2703H103.339V9.10802C104.1 9.10802 104.629 9.06614 104.925 8.98237C105.221 8.87766 105.401 8.59493 105.464 8.1342C105.528 7.67347 105.559 6.8986 105.559 5.80959H106.86V9.10802H109.874V10.2703H106.86V20.6368H109.874V21.8619H107.05ZM114.909 21.6421C115.585 21.9981 116.463 22.1761 117.541 22.1761C118.514 22.1761 119.403 22.0609 120.206 21.8305C121.031 21.6002 121.687 21.2337 122.173 20.7311C122.659 20.2075 122.903 19.5478 122.903 18.752C122.903 17.8515 122.681 17.1499 122.236 16.6473C121.813 16.1447 121.264 15.7677 120.587 15.5164C119.931 15.2442 119.233 15.0347 118.493 14.8881C117.753 14.7206 117.045 14.5531 116.368 14.3855C115.691 14.197 115.141 13.9457 114.718 13.6316C114.295 13.2965 114.084 12.8044 114.084 12.1551C114.084 11.4431 114.422 10.9091 115.099 10.553C115.797 10.1761 116.643 9.98761 117.637 9.98761C117.996 9.98761 118.398 10.0295 118.842 10.1133C119.286 10.1761 119.709 10.3122 120.111 10.5216C120.534 10.7311 120.872 11.0452 121.126 11.464C121.38 11.862 121.486 12.3855 121.443 13.0347H122.839C122.881 12.1761 122.744 11.4745 122.427 10.93C122.11 10.3646 121.687 9.92478 121.158 9.61064C120.629 9.2965 120.058 9.07661 119.445 8.95096C118.853 8.8253 118.282 8.76247 117.732 8.76247C116.273 8.76247 115.078 9.07661 114.147 9.70488C113.217 10.3332 112.751 11.1394 112.751 12.1237C112.73 12.9614 112.921 13.6211 113.322 14.1028C113.745 14.5845 114.285 14.951 114.94 15.2023C115.617 15.4536 116.325 15.6525 117.066 15.7991C117.806 15.9457 118.514 16.1133 119.191 16.3017C119.868 16.4902 120.418 16.7729 120.841 17.1499C121.264 17.5059 121.486 18.019 121.507 18.6892C121.507 19.2546 121.316 19.7154 120.936 20.0714C120.576 20.4065 120.09 20.6578 119.477 20.8253C118.884 20.9719 118.25 21.0452 117.573 21.0452C116.6 21.0452 115.85 20.8986 115.321 20.6054C114.813 20.2913 114.454 19.9248 114.242 19.5059C114.031 19.0871 113.904 18.7206 113.862 18.4065C113.841 18.0714 113.83 17.8934 113.83 17.8724H112.402C112.402 18.0818 112.466 18.4169 112.593 18.8777C112.741 19.3384 112.995 19.8201 113.354 20.3227C113.714 20.8253 114.232 21.2651 114.909 21.6421Z" fill="#86E1FF"/>
</svg>
