<?xml version="1.0" encoding="utf-8"?>
<!-- Generator: Adobe Illustrator 23.0.6, SVG Export Plug-In . SVG Version: 6.00 Build 0)  -->
<svg version="1.2" baseProfile="tiny" id="Layer_1" xmlns="http://www.w3.org/2000/svg" xmlns:xlink="http://www.w3.org/1999/xlink"
	 x="0px" y="0px" viewBox="0 0 238 107.61" xml:space="preserve">
<rect x="54.367" y="38.257" fill="#0D84C7" width="8.093" height="26.012"/>
<polygon fill="#005F7C" points="30.878,74.622 29.438,74.622 30.752,71.066 28.393,71.066 28.393,68.726 29.807,68.726 
	29.807,69.895 32.625,69.895 "/>
<path fill="#005F7C" d="M39.411,69.896c-0.252,2.296-0.351,4.727-3.304,4.727H33.55l-0.567-4.727h1.413l0.217,1.918h0.027
	c0.396,0,0.693-0.181,0.756-0.604c0.063-0.431,0.09-0.881,0.135-1.314h1.386c-0.026,0.388-0.054,0.757-0.089,1.144
	c-0.1,1.143-0.613,1.638-1.765,1.638h-0.351l0.09,0.775h1.224c1.161,0,1.719-1.045,1.819-2.072l0.135-1.485H39.411z"/>
<path fill="#005F7C" d="M45.305,71.624c0-0.387-0.216-0.558-0.585-0.558h-1.099v2.386h1.684V71.624z M42.181,74.622v-4.727h2.764
	c1.089,0,1.8,0.649,1.8,1.756v2.971H42.181z"/>
<polygon fill="#005F7C" points="48.14,72.516 48.14,71.067 47.375,71.067 47.375,69.896 49.58,69.896 49.58,72.516 "/>
<path fill="#005F7C" d="M50.434,74.622v-1.17h2.917V71.57c0-0.387-0.162-0.504-0.531-0.504h-0.946v1.396h-1.44v-2.567h2.755
	c1.08,0,1.602,0.478,1.602,1.567v3.16H50.434z"/>
<path fill="#005F7C" d="M59.507,74.622v-3.556h-1.54v1.953c0,0.874-0.333,1.603-1.314,1.603h-1.098v-1.17h0.612
	c0.279,0,0.36-0.136,0.36-0.396v-1.99h-0.891v-1.171h5.311v4.727H59.507z"/>
<polygon fill="#005F7C" points="62.341,74.622 62.341,71.066 61.576,71.066 61.576,69.895 63.781,69.895 63.781,74.622 "/>
<path fill="#005F7C" d="M70.974,69.896c-0.252,2.296-0.35,4.727-3.304,4.727h-2.556l-0.568-4.727h1.413l0.216,1.918h0.028
	c0.396,0,0.693-0.181,0.755-0.604c0.064-0.431,0.091-0.881,0.136-1.314h1.386c-0.026,0.388-0.054,0.757-0.09,1.144
	c-0.099,1.143-0.612,1.638-1.765,1.638h-0.35l0.09,0.775h1.224c1.161,0,1.72-1.045,1.819-2.072l0.134-1.485H70.974z"/>
<path fill="#005F7C" d="M74.087,74.622v-1.17h1.008v-1.828c0-0.387-0.216-0.558-0.585-0.558h-0.783l-0.666,3.556H71.62l0.73-3.556
	h-0.856v-1.171h3.24c1.09,0,1.801,0.649,1.801,1.756v2.971H74.087z"/>
<path fill="#005F7C" d="M77.434,72.074h1.44v2.548h-1.44V72.074z M80.378,74.622v-3.556h-2.944v-1.171h4.385v4.727H80.378z"/>
<path fill="#005F7C" d="M84.788,72.074h1.44v2.548h-1.44V72.074z M87.732,74.622v-3.556h-2.944v-1.171h4.384v4.727H87.732z"/>
<polygon fill="#005F7C" points="93.446,71.067 93.446,74.623 91.961,74.623 91.961,71.067 89.782,71.067 89.782,69.896 
	94.175,69.896 94.175,71.067 "/>
<polygon fill="#005F7C" points="95.299,74.622 95.299,71.066 94.534,71.066 94.534,69.895 96.74,69.895 96.74,74.622 "/>
<polygon fill="#005F7C" points="97.46,74.622 97.46,73.452 99.566,73.452 99.566,71.066 97.46,71.066 97.46,69.895 101.007,69.895 
	101.007,73.452 101.736,73.452 101.736,74.622 "/>
<path fill="#005F7C" d="M106.956,71.904c-0.072,1.611-0.712,2.719-2.458,2.719h-2.206v-1.17h0.819l-0.854-3.557h1.485l0.747,3.592
	h0.072c0.72,0,0.91-0.747,0.936-1.323l0.072-2.269h1.468L106.956,71.904z"/>
<path fill="#005F7C" d="M107.882,72.074h1.44v2.548h-1.44V72.074z M110.826,74.622v-3.556h-2.944v-1.171h4.384v4.727H110.826z"/>
<polygon fill="#005F7C" points="115.729,72.516 115.729,71.067 114.964,71.067 114.964,69.896 117.169,69.896 117.169,72.516 "/>
<path fill="#005F7C" d="M120.437,74.622v-1.17h1.008v-1.828c0-0.387-0.216-0.558-0.585-0.558h-0.783l-0.666,3.556h-1.441l0.73-3.556
	h-0.856v-1.171h3.24c1.09,0,1.801,0.649,1.801,1.756v2.971H120.437z"/>
<path fill="#005F7C" d="M126.818,74.622v-2.998c0-0.387-0.216-0.558-0.585-0.558h-1.009v3.556h-1.44v-4.727h2.674
	c1.089,0,1.8,0.649,1.8,1.756v2.971H126.818z"/>
<path fill="#005F7C" d="M132.974,74.622v-3.556h-1.54v1.953c0,0.874-0.333,1.603-1.313,1.603h-1.099v-1.17h0.612
	c0.279,0,0.36-0.136,0.36-0.396v-1.99h-0.891v-1.171h5.311v4.727H132.974z"/>
<path fill="#005F7C" d="M137.726,74.622v-1.17h1.008v-1.828c0-0.387-0.216-0.558-0.585-0.558h-0.783l-0.666,3.556h-1.441l0.73-3.556
	h-0.856v-1.171h3.24c1.09,0,1.801,0.649,1.801,1.756v2.971H137.726z"/>
<polygon fill="#005F7C" points="3.069,82.622 1.629,82.622 2.943,79.066 0.584,79.066 0.584,76.726 1.998,76.726 1.998,77.895 
	4.816,77.895 "/>
<polygon fill="#005F7C" points="5.804,80.516 5.804,79.067 5.039,79.067 5.039,77.896 7.244,77.896 7.244,80.516 "/>
<polygon fill="#005F7C" points="10.359,82.622 8.919,82.622 10.233,79.066 7.874,79.066 7.874,76.726 9.288,76.726 9.288,77.895 
	12.106,77.895 "/>
<path fill="#005F7C" d="M14.175,82.622l-0.117-1.287h-0.063c-0.306,0.666-0.747,1.395-1.575,1.422v-1.458
	c0.765-0.117,1.53-0.621,1.53-1.468c0-0.252-0.009-0.513-0.018-0.765h-1.197v-1.171h2.548l0.179,4.727H14.175z"/>
<path fill="#005F7C" d="M16.316,80.074h1.441v2.548h-1.441V80.074z M19.26,82.622v-3.556h-2.944v-1.171H20.7v4.727H19.26z"/>
<polygon fill="#005F7C" points="22.094,82.622 22.094,79.066 21.329,79.066 21.329,77.895 23.534,77.895 23.534,82.622 "/>
<polygon fill="#005F7C" points="26.324,82.622 26.324,81.452 28.431,81.452 28.431,79.066 26.324,79.066 26.324,77.895 
	29.871,77.895 29.871,81.452 30.6,81.452 30.6,82.622 "/>
<path fill="#005F7C" d="M32.805,82.622l-0.117-1.287h-0.063c-0.306,0.666-0.747,1.395-1.575,1.422v-1.458
	c0.765-0.117,1.53-0.621,1.53-1.468c0-0.252-0.009-0.513-0.018-0.765h-1.197v-1.171h2.547l0.18,4.727H32.805z"/>
<polygon fill="#005F7C" points="34.721,82.622 34.721,81.452 35.891,81.452 35.891,79.066 34.856,79.066 34.856,77.895 
	37.332,77.895 37.332,82.622 "/>
<path fill="#005F7C" d="M38.231,80.074h1.44v2.548h-1.44V80.074z M41.175,82.622v-3.556h-2.944v-1.171h4.384v4.727H41.175z"/>
<polygon fill="#005F7C" points="45.882,83.559 45.162,83.559 45.387,81.362 46.827,81.362 "/>
<path fill="#005F7C" d="M47.474,80.074h1.44v2.548h-1.44V80.074z M50.418,82.622v-3.556h-2.944v-1.171h4.384v4.727H50.418z"/>
<polygon fill="#005F7C" points="53.252,80.516 53.252,79.067 52.487,79.067 52.487,77.896 54.692,77.896 54.692,80.516 "/>
<path fill="#005F7C" d="M57.581,82.622v-2.998c0-0.387-0.216-0.558-0.585-0.558h-1.738v-1.171h1.963
	c1.089,0,1.801,0.649,1.801,1.756v2.971H57.581z"/>
<path fill="#005F7C" d="M59.921,82.622v-1.17h2.917V79.57c0-0.387-0.162-0.504-0.531-0.504h-0.946v1.396h-1.44v-2.567h2.755
	c1.08,0,1.602,0.478,1.602,1.567v3.16H59.921z"/>
<polygon fill="#005F7C" points="65.672,80.516 65.672,79.067 64.907,79.067 64.907,77.896 67.112,77.896 67.112,80.516 "/>
<path fill="#005F7C" d="M70.003,82.622v-2.998c0-0.387-0.217-0.558-0.586-0.558H67.68v-1.171h1.963c1.088,0,1.8,0.649,1.8,1.756
	v2.971H70.003z"/>
<path fill="#005F7C" d="M72.34,82.622v-1.17h2.917V79.57c0-0.387-0.162-0.504-0.531-0.504H73.78v1.396h-1.44v-2.567h2.755
	c1.08,0,1.602,0.478,1.602,1.567v3.16H72.34z"/>
<path fill="#005F7C" d="M77.598,80.074h1.44v2.548h-1.44V80.074z M80.542,82.622v-3.556h-2.944v-1.171h4.384v4.727H80.542z"/>
<path fill="#005F7C" d="M87.984,82.622v-2.998c0-0.387-0.216-0.558-0.585-0.558H86.39v3.556h-1.44v-4.727h2.674
	c1.09,0,1.8,0.649,1.8,1.756v2.971H87.984z"/>
<polygon fill="#005F7C" points="90.818,82.622 90.818,79.066 90.053,79.066 90.053,77.895 92.258,77.895 92.258,82.622 "/>
<path fill="#005F7C" d="M96.975,82.622v-3.556h-1.54v1.953c0,0.874-0.333,1.603-1.313,1.603h-1.099v-1.17h0.612
	c0.28,0,0.36-0.136,0.36-0.396v-1.99h-0.891v-1.171h5.311v4.727H96.975z"/>
<polygon fill="#005F7C" points="99.808,80.516 99.808,79.067 99.043,79.067 99.043,77.896 101.248,77.896 101.248,80.516 "/>
<path fill="#005F7C" d="M102.103,82.622v-1.17h2.917V79.57c0-0.387-0.162-0.504-0.531-0.504h-0.946v1.396h-1.44v-2.567h2.755
	c1.08,0,1.602,0.478,1.602,1.567v3.16H102.103z"/>
<polygon fill="#005F7C" points="109.619,82.622 108.179,82.622 109.493,79.066 107.135,79.066 107.135,76.726 108.548,76.726 
	108.548,77.895 111.365,77.895 "/>
<polygon fill="#005F7C" points="117.305,79.067 117.305,82.623 115.82,82.623 115.82,79.067 113.641,79.067 113.641,77.896 
	118.034,77.896 118.034,79.067 "/>
<path fill="#005F7C" d="M120.698,82.622v-2.998c0-0.387-0.217-0.558-0.586-0.558h-1.737v-1.171h1.963c1.089,0,1.8,0.649,1.8,1.756
	v2.971H120.698z"/>
<path fill="#005F7C" d="M129.33,77.896c-0.252,2.296-0.351,4.727-3.304,4.727h-2.556l-0.568-4.727h1.413l0.216,1.918h0.028
	c0.396,0,0.693-0.181,0.755-0.604c0.064-0.431,0.091-0.881,0.136-1.314h1.386c-0.026,0.388-0.054,0.757-0.09,1.144
	c-0.099,1.143-0.612,1.638-1.765,1.638h-0.35l0.09,0.775h1.224c1.161,0,1.72-1.045,1.819-2.072l0.134-1.485H129.33z"/>
<path fill="#005F7C" d="M132.443,82.622v-1.17h1.008v-1.828c0-0.387-0.216-0.558-0.585-0.558h-0.783l-0.666,3.556h-1.441l0.73-3.556
	h-0.856v-1.171h3.24c1.09,0,1.801,0.649,1.801,1.756v2.971H132.443z"/>
<path fill="#005F7C" d="M135.79,80.074h1.44v2.548h-1.44V80.074z M138.734,82.622v-3.556h-2.944v-1.171h4.384v4.727H138.734z"/>
<path fill="#1BABE2" d="M48.393,90.622v-3.556h-1.54v1.953c0,0.874-0.333,1.603-1.314,1.603h-1.098v-1.17h0.612
	c0.279,0,0.36-0.136,0.36-0.396v-1.99h-0.891v-1.171h5.311v4.727H48.393z"/>
<polygon fill="#1BABE2" points="51.407,90.622 51.407,87.066 50.642,87.066 50.642,85.895 52.847,85.895 52.847,90.622 "/>
<polygon fill="#1BABE2" points="54.422,88.516 54.422,87.067 53.657,87.067 53.657,85.896 55.862,85.896 55.862,88.516 "/>
<polygon fill="#1BABE2" points="57.392,90.622 57.392,87.066 56.627,87.066 56.627,85.895 58.833,85.895 58.833,90.622 "/>
<polygon fill="#1BABE2" points="59.687,90.622 59.687,89.452 60.857,89.452 60.857,87.066 59.822,87.066 59.822,85.895 
	62.297,85.895 62.297,90.622 "/>
<path fill="#1BABE2" d="M65.79,90.622v-1.17h1.008v-1.828c0-0.387-0.216-0.558-0.585-0.558H65.43l-0.666,3.556h-1.441l0.73-3.556
	h-0.856v-1.171h3.241c1.089,0,1.8,0.649,1.8,1.756v2.971H65.79z"/>
<polygon fill="#1BABE2" points="72.692,87.067 72.692,90.623 71.207,90.623 71.207,87.067 69.028,87.067 69.028,85.896 
	73.421,85.896 73.421,87.067 "/>
<path fill="#1BABE2" d="M76.462,87.067c-0.468,0-0.684,0.477-0.684,0.882c0,0.063,0.009,0.135,0.018,0.207l0.343,2.467h-1.423
	l-0.243-1.945c-0.009-0.099-0.018-0.18-0.018-0.261c0-0.513,0.27-1.134,0.765-1.35h-1.17v-1.171h2.736v1.171H76.462z"/>
<path fill="#1BABE2" d="M77.642,88.074h1.44v2.548h-1.44V88.074z M80.586,90.622v-3.556h-2.944v-1.171h4.384v4.727H80.586z"/>
<path fill="#1BABE2" d="M89.171,90.622v-3.556h-1.54v1.953c0,0.874-0.333,1.603-1.313,1.603h-1.099v-1.17h0.612
	c0.279,0,0.36-0.136,0.36-0.396v-1.99H85.3v-1.171h5.311v4.727H89.171z"/>
<polygon fill="#1BABE2" points="92.185,90.622 92.185,87.066 91.42,87.066 91.42,85.895 93.625,85.895 93.625,90.622 "/>
<path fill="#1BABE2" d="M96.74,90.622v-2.998c0-0.387-0.217-0.558-0.586-0.558h-1.737v-1.171h1.963c1.088,0,1.8,0.649,1.8,1.756
	v2.971H96.74z"/>
<path fill="#1BABE2" d="M103.779,85.896l-0.297,1.558c-0.081,0.441-0.279,0.8-0.712,0.972c-0.143,0.063-0.278,0.072-0.423,0.108
	l1.324,2.089h-4.565v-1.17h2.305l-2.431-3.557h1.666l1.179,1.846c0.181,0,0.262-0.154,0.288-0.306l0.279-1.54H103.779z"/>
<polygon fill="#1BABE2" points="105.082,90.622 105.082,87.066 104.317,87.066 104.317,85.895 106.522,85.895 106.522,90.622 "/>
<polygon fill="#1BABE2" points="108.097,88.516 108.097,87.067 107.332,87.067 107.332,85.896 109.537,85.896 109.537,88.516 "/>
<path fill="#1BABE2" d="M116.639,90.622v-3.556h-1.54v1.953c0,0.874-0.333,1.603-1.313,1.603h-1.099v-1.17h0.612
	c0.279,0,0.36-0.136,0.36-0.396v-1.99h-0.891v-1.171h5.311v4.727H116.639z"/>
<polygon fill="#1BABE2" points="119.653,90.622 119.653,87.066 118.888,87.066 118.888,85.895 121.093,85.895 121.093,90.622 "/>
<polygon fill="#1BABE2" points="124.432,90.622 122.992,90.622 124.306,87.066 121.948,87.066 121.948,84.726 123.361,84.726 
	123.361,85.895 126.178,85.895 "/>
<polygon fill="#1BABE2" points="127.347,88.516 127.347,87.067 126.582,87.067 126.582,85.896 128.787,85.896 128.787,88.516 "/>
<path fill="#1BABE2" d="M129.823,88.074h1.44v2.548h-1.44V88.074z M132.767,90.622v-3.556h-2.944v-1.171h4.384v4.727H132.767z"/>
<path fill="#1BABE2" d="M135.286,88.074h1.44v3.655h-1.44V88.074z M139.013,90.622H137.5l1.17-3.556h-3.384v-1.171h5.293
	L139.013,90.622z"/>
<path fill="#090B0B" d="M237.415,76.291c-0.037-4.013-0.142-15.749-0.142-16.444c0-0.37-0.185-0.599-0.394-0.746
	c-0.248-0.169-0.343-0.493-0.211-0.762c0.093-0.192,0.17-0.424,0.17-0.678c0-0.672-0.74-20.364-0.74-21.104
	c0-0.045-0.007-0.087-0.013-0.126c-0.059-0.264-0.056-0.541-0.056-0.816v-0.737c0,0-1.157-19.136-1.341-22.374
	c-0.045-0.857-1.054-1.153-1.887-1.352c-3.964-0.947-15.81-3.763-16.32-3.763c-0.422,0-1.159,0.22-1.576,0.359
	c-0.166,0.058-0.316-0.091-0.316-0.261c0-0.44-0.302-0.825-0.726-0.927c-2.81-0.687-12.877-3.137-13.863-3.137
	c-0.573,0-0.924,0.065-1.133,0.134c-0.122,0.039-0.274-0.006-0.274-0.134c0-0.317-0.227-0.586-0.535-0.651
	c-2.395-0.503-12.01-2.508-12.773-2.508c-0.724,0-5.827,2.349-7.558,3.159c-0.357,0.165-0.777,0.1-1.085-0.145
	c-1.027-0.811-3.32-2.546-4.195-2.546c-0.394,0-0.699,0.041-0.929,0.093c-0.432,0.097-0.819,0.327-1.228,0.494
	c-4.426,1.804-31.426,12.832-31.919,13.328c-0.167,0.167-0.27,0.348-0.332,0.518c-0.154,0.427-0.099,0.898-0.15,1.348l-0.923,7.524
	h13.427v8.258l-8.149,22.723h-8.428c0.055,0.107,0.103,0.217,0.168,0.318c4.832,7.473,32.366,50.032,33.291,51.185
	c1.011,1.266,1.011,0.696,1.961,0.696s1.075,0.128,1.581-0.377c0.507-0.508,11.017-6.601,13.358-8.484
	c1.794-1.442,3.933-3.609,4.838-4.544c0.252-0.261,0.669-0.225,0.923,0.03c1.472,1.473,5.875,5.761,7.38,5.761
	c0.94,0,1.681-0.336,1.681-0.336s12.266-7.765,13.912-8.74c1.648-0.975,1.277-1.672,1.277-2.545v-2.601
	c0-0.297,0.288-0.541,0.544-0.396c1.475,0.816,5.467,2.99,6.178,2.99c0.874,0,2.555-0.808,2.555-0.808l12.874-8.798
	C237.019,77.902,237.423,77.118,237.415,76.291"/>
<path fill="#090B0B" d="M154.215,38.918c-0.362-0.585-0.107-1.354,0.534-1.606l18.372-7.228c0.72-0.285,1.547-0.04,2.001,0.588
	l12.032,16.723c0.402,0.558,0.203,1.346-0.421,1.645l-18.568,8.446c-0.677,0.327-1.489,0.087-1.885-0.55L154.215,38.918z"/>
<path fill="#090B0B" d="M170.018,55.857c0,0,13.005-5.862,16.821-7.784c0.682-0.344,1.178-0.363,1.275-0.145
	c0.156,0.351-0.106,0.797-0.677,1.2c-4.084,2.021-16.854,7.839-16.854,7.839c-0.11,0.053-0.791,0.361-1.029-0.081
	C169.316,56.446,169.67,56.024,170.018,55.857"/>
<path fill="#FBFDFF" d="M155.831,36.379c-0.359-0.586-0.104-1.354,0.536-1.606l18.744-7.811c0.72-0.285,1.545-0.04,1.998,0.588
	l11.662,17.304c0.402,0.561,0.205,1.346-0.418,1.646l-18.409,8.684c-0.677,0.326-1.491,0.088-1.885-0.552L155.831,36.379z"/>
<path fill="#090B0B" d="M169.953,60.48c-0.4-0.562-0.196-1.35,0.427-1.651l18.199-8.837c0.689-0.333,1.52-0.134,1.98,0.479
	l14.379,19.147c0.415,0.552,0.235,1.344-0.381,1.663l-18.006,10.62c-0.67,0.35-1.497,0.147-1.935-0.469L169.953,60.48z"/>
<path fill="#090B0B" d="M205.972,71.118c0.415,0.552,0.235,1.346-0.38,1.663l-17.949,9.218c-0.673,0.348-2.66,0.289-1.314-0.419
	C187.673,80.875,205.972,71.118,205.972,71.118"/>
<path fill="#FBFDFF" d="M171.93,60.765c-0.398-0.568-0.196-1.354,0.428-1.656l18.196-8.834c0.69-0.334,1.523-0.134,1.982,0.479
	l14.379,19.145c0.414,0.552,0.234,1.345-0.379,1.666l-18.574,9.625c-0.67,0.347-1.497,0.145-1.934-0.472L171.93,60.765z"/>
<path fill="#FBFDFF" d="M188.029,33.894c-0.47-0.388-0.371-1.136,0.182-1.39l15.882-7.256c0.739-0.338,1.609-0.245,2.26,0.243
	L220.631,36.2c0.49,0.368,0.424,1.118-0.118,1.395l-16.091,8.253c-0.711,0.365-1.578,0.273-2.195-0.237L188.029,33.894z"/>
<path fill="#FBFDFF" d="M186.986,10.057c-0.448-0.178-0.458-0.811-0.015-0.998c3.119-1.313,11.264-4.709,13.03-5.076
	c1.764-0.364,10.128,1.867,13.328,2.755c0.428,0.118,0.447,0.71,0.042,0.891l-13.988,6.289c-0.769,0.346-1.649,0.368-2.435,0.057
	L186.986,10.057z"/>
<path fill="#090B0B" d="M219.414,46.383c-0.186-0.338-0.061-0.764,0.278-0.948l14.686-8.042c0.337-0.187,0.764-0.062,0.947,0.275
	c0.187,0.339,0.064,0.764-0.275,0.95l-14.688,8.042c-0.107,0.059-0.221,0.086-0.335,0.086
	C219.781,46.746,219.542,46.614,219.414,46.383"/>
<path fill="#090B0B" d="M203.595,47.988c-0.186-0.34-0.062-0.765,0.277-0.948l18.034-9.281c0.339-0.185,0.763-0.061,0.948,0.275
	c0.188,0.341,0.061,0.765-0.277,0.951l-18.035,9.281c-0.104,0.058-0.222,0.085-0.332,0.085
	C203.961,48.351,203.724,48.219,203.595,47.988"/>
<path fill="#090B0B" d="M217.331,20.902c-0.154-0.354,0.007-0.767,0.361-0.919l15.282-7.134c0.355-0.154,0.765,0.009,0.919,0.362
	c0.155,0.356-0.008,0.766-0.36,0.919l-15.284,7.135c-0.109,0.049-0.229,0.064-0.338,0.054
	C217.663,21.297,217.435,21.145,217.331,20.902"/>
<path fill="#090B0B" d="M153.88,33.549c-0.153-0.354,0.009-0.766,0.36-0.92c0,0,14.794-6.08,18.68-7.85
	c0.695-0.316,1.192-0.318,1.281-0.094c0.144,0.355-0.137,0.793-0.723,1.172c-4.16,1.858-18.679,8.055-18.679,8.055
	c-0.112,0.049-0.229,0.064-0.341,0.054C154.212,33.944,153.985,33.791,153.88,33.549"/>
<path fill="#FBFDFF" d="M201.179,15.223c-0.426-0.137-0.453-0.725-0.044-0.902c3.543-1.541,13.974-6.046,15.347-6.321
	c1.357-0.272,11.466,2.466,15.054,3.459c0.44,0.121,0.488,0.726,0.076,0.923c-3.676,1.772-14.719,7.046-15.958,7.046
	C214.43,19.428,204.652,16.335,201.179,15.223"/>
<path fill="#FBFDFF" d="M203.67,50.557c0.079-0.814,0.577-1.537,1.312-1.898l16.368-8.062c0.486-0.24,1.062,0.143,0.969,0.678
	c-0.648,3.806-2.564,14.984-2.901,16.219c-0.407,1.49-3.116,2.845-3.116,2.845l-10.093,5.593c-0.66,0.368-1.489,0.185-1.935-0.423
	l-1.016-1.393c-0.501-0.685-0.734-1.534-0.652-2.38L203.67,50.557z"/>
<path fill="#E0E2E0" d="M218.055,61.431c0.106-0.502-0.43-0.895-0.877-0.643l-11.063,6.121c-0.591,0.332-0.477,0.664-0.072,1.209
	c0.486,0.656,1.386,1.663,1.494,2.281c0.25,1.424-0.369,2.713-1.258,3.284c-0.892,0.568-17.723,9.714-18.613,10.104
	c-0.698,0.307-4.871,5.503-6.665,7.764c-0.17,0.215,0.074,0.515,0.313,0.379c1.992-1.162,6.114-3.561,8.098-4.722
	c2.209-1.298,7.549-4.086,9.319-5.006c0.266-0.139,0.581,0.059,0.581,0.359v0.334c0,0.594,0.637,0.971,1.157,0.684l13.427-7.382
	c0.734-0.403,1.258-1.11,1.431-1.926L218.055,61.431z"/>
<path fill="#B3C0C3" d="M170.025,106.768c-0.202,0.122-0.828-0.27-0.673-0.448l3.627-4.522c0.581-0.653,1.705-1.001,2.462-1.436
	l12.625-7.297c0.234-0.137,0.476,0.156,0.304,0.363c-1.016,1.231-2.677,3.188-3.354,3.711
	C184.178,97.782,173.529,104.681,170.025,106.768"/>
<path fill="#B3C0C3" d="M198.77,88.413c0.083-0.823,0.556-1.565,1.268-1.991l13.531-8.061c0.459-0.276,1.034,0.1,0.966,0.634
	l-1.231,9.532c-0.107,0.825-0.582,1.566-1.29,2.008l-13.233,8.272c-0.456,0.287-1.041-0.079-0.99-0.615L198.77,88.413z"/>
<path fill="#FFFFFF" d="M218.033,23.272c-0.007-0.802,0.464-1.535,1.193-1.862l14.162-6.353c0.581-0.258,1.233,0.147,1.259,0.778
	l0.746,18.08c0.034,0.808-0.388,1.571-1.091,1.975l-10.262,5.877c-0.487,0.281-1.092-0.099-1.052-0.661l0.28-3.959
	c0.031-0.405-0.174-0.794-0.518-1.003l-3.486-2.115c-0.702-0.426-1.136-1.188-1.142-2.006L218.033,23.272z"/>
<path fill="#FFFFFF" d="M221.868,70.886c-0.024-0.817,0.381-1.594,1.064-2.044l12.937-8.491c0.476-0.312,1.107,0.027,1.108,0.597
	l0.069,15.141c0.003,0.825-0.409,1.601-1.092,2.057l-12.485,8.392c-0.479,0.321-1.121-0.008-1.138-0.584L221.868,70.886z"/>
<path fill="#090B0B" d="M221.183,68.471c-0.098-0.156-0.05-0.36,0.105-0.457l14.499-8.983c0.158-0.096,0.362-0.047,0.458,0.11
	c0.097,0.156,0.049,0.359-0.108,0.456l-14.498,8.981c-0.054,0.036-0.113,0.051-0.175,0.051
	C221.353,68.629,221.245,68.575,221.183,68.471"/>
<path fill="#0AACCB" d="M184.918,35.837c-0.11-0.153,0.227-1.166,0.371-1.044l15.973,13.54c0.633,0.532,0.971,1.342,0.902,2.164
	l-0.188,7.625c-0.038,0.453-0.619,0.618-0.888,0.247L184.918,35.837z"/>
<path fill="#FBFDFF" d="M197.072,3.005l-10.567-2.213c-0.837-0.183-1.236-0.213-2.027,0.124l-6.976,2.916l7.592,4.863
	c0.133-0.032,0.266-0.07,0.392-0.123l11.586-4.819C197.446,3.597,197.468,3.091,197.072,3.005"/>
<path fill="#0AACCB" d="M199.173,18.587c-1.842-1.622-0.529-2.83-0.186-2.728l15.779,5.496c0.761,0.224,1.302,0.903,1.349,1.693
	l0.466,7.435c0.032,0.545-0.567,0.894-1.023,0.594l-10.318-6.754c-0.272-0.177-0.616-0.221-0.924-0.11
	c-0.485,0.174-0.998-0.174-1.016-0.689l-0.044-1.239c-0.016-0.423-0.189-0.832-0.481-1.137L199.173,18.587z"/>
<path fill="#FBFDFF" d="M184.147,10.965c0.533-0.234,0.608-0.96,0.134-1.299l-10.54-7.527c-0.667-0.479-1.54-0.581-2.297-0.271
	l-9.325,3.802l8.492,11.234L184.147,10.965z"/>
<path fill="#FBFDFF" d="M201.096,21.998l-11.78-9.102c-0.645-0.5-1.513-0.613-2.266-0.302l-14.989,6.229l4.728,6.255l5.747,4.909
	c0.615,0.523,1.479,0.655,2.219,0.335l16.175-6.991C201.475,23.094,201.567,22.362,201.096,21.998"/>
<path fill="#EB3137" d="M235.808,39.21c-0.026-0.598-0.681-0.95-1.193-0.646l-1.197,0.66l-10.967,6.049l-1.215,9.246l-0.005,4.253
	l-0.003,6.491c-0.003,0.58,0.074,1.212,0.567,0.916l0.356-0.219l1.564-0.965l1.356-0.837l2.046-1.26l8.07-4.97
	c0.695-0.42,1.11-1.192,1.074-2.001v-0.022L235.808,39.21z"/>
<path fill="#0AACCB" d="M172.8,23.09l-1.288-1.834l-0.703-1l-1.873-2.672l-1.383-1.969l-5.535-7.886l-0.165-0.235
	c-0.446-0.634-1.27-0.883-1.991-0.604l-5.441,2.103l-2.654,1.025l-2.43,0.94l-3.751,1.451l-3.03,1.17l-0.547,0.213
	c-0.632,0.242-0.869,1.009-0.486,1.567l2.005,2.942l3.913,5.736h2.952v4.329l2.101,3.079c0.191,0.277,0.45,0.481,0.745,0.596
	c0.382,0.152,0.822,0.158,1.222-0.007l4.305-1.773l2.601-1.07l4.304-1.775l3.777-1.552l1.263-0.52l1.407-0.579l0.22-0.091
	c0.049-0.02,0.094-0.047,0.141-0.072C172.995,24.293,173.157,23.601,172.8,23.09"/>
<path fill="#CADB46" d="M188.772,44.854l-2.194-3.254l-1.764-2.616l-1.557-2.313l-1.252-1.856l-4.895-7.265
	c-0.453-0.628-1.278-0.873-1.998-0.588l-1.65,0.686l-0.374,0.156l-1.479,0.618l-1.298,0.54l-3.789,1.579l-4.294,1.79l-3.063,1.275
	l-2.797,1.167c-0.641,0.253-0.896,1.02-0.536,1.606l3.668,5.475l7.312,10.914l1.247,1.864c0.395,0.64,1.208,0.878,1.886,0.552
	l3.027-1.428l5.486-2.589l0.387-0.181l0.463-0.219l1.449-0.684l2.045-0.964l0.899-0.422l1.66-0.783l1.536-0.728l1.457-0.686
	C188.976,46.201,189.173,45.416,188.772,44.854"/>
<path fill="#E93137" d="M206.915,69.899l-4.798-6.389l-2.907-3.869l-5.818-7.745l-0.857-1.142c-0.038-0.052-0.085-0.099-0.129-0.145
	c-0.474-0.494-1.221-0.642-1.852-0.334l-3.504,1.7l-1.489,0.722l-1.786,0.868l-0.795,0.387l-2.476,1.201l-1.497,0.727l-5.017,2.437
	l-1.633,0.792c-0.624,0.302-0.826,1.088-0.427,1.656l3.366,4.761l7.829,11.085l0.913,1.29l0.109,0.158l1.247,1.758l0.633,0.901
	c0.438,0.618,1.265,0.82,1.935,0.472l5.055-2.619l2.522-1.31l5.745-2.975l1.857-0.963l3.394-1.758
	C207.148,71.245,207.328,70.451,206.915,69.899"/>
<path fill="#17B9EC" d="M145.941,44.708l0.962,1.508c0,0,0.209,0.306,0.454,0.264c0.259-0.044,0.317-0.458,0.317-0.458l0.972-4.171
	l1.192-5.13c0,0,0.408-1.555,0.31-2.095c-0.032-0.176-0.186-0.488-0.324-0.745L145.941,44.708z M143.304,24.037l-2.1-3.15
	l-2.011-3.017c0,0-0.154-0.314-0.358-0.265c-0.189,0.046-0.193,0.338-0.193,0.338l-0.679,6.094H143.304z"/>
<path fill="#6FBF58" d="M142.43,54.5l1.882,2.758l0.745,1.093c0,0,0.115,0.243,0.258,0.213c0.128-0.028,0.162-0.249,0.162-0.249
	l1.514-8.478c0,0,0.06-0.444,0.032-0.585c-0.027-0.129-0.218-0.426-0.218-0.426l-1.507-2.323L142.43,54.5z"/>
<path fill="#0BAB92" d="M134.283,55.019l6.677,10.455l1.192,1.865c0,0,0.271,0.4,0.579,0.35c0.313-0.05,0.407-0.524,0.407-0.524
	l1.488-5.825c0,0,0.187-0.738,0.146-0.984c-0.027-0.166-0.267-0.547-0.267-0.547l-3.156-4.79H134.283z"/>
<path fill="#08AB5B" d="M159.626,48.736l-5.401-8.066c0,0-0.37-0.744-0.807-0.667c-0.363,0.063-0.536,0.626-0.536,0.626
	l-2.256,9.269c0,0-0.294,0.956-0.167,1.688c0.093,0.53,0.313,0.791,0.313,0.791l4.545,6.8l6.084,9.085c0,0,0.292,0.429,0.538,0.407
	c0.269-0.025,0.438-0.583,0.438-0.583l3.551-8.197c0,0,0.287-0.808,0.26-1.095c-0.02-0.228-0.31-0.721-0.31-0.721L159.626,48.736z"
	/>
<path fill="#99C850" d="M155.351,61.406l-3.692-5.381l-1.306-2.015c0,0-0.224-0.388-0.477-0.342
	c-0.273,0.05-0.322,0.563-0.322,0.563l-1.754,7.98c0,0-0.134,0.651-0.091,0.874c0.048,0.249,0.464,0.852,0.464,0.852l1.932,2.853
	l2.928,4.32l1.969,2.907l2.311,3.406c0,0,0.396,0.568,0.71,0.537c0.298-0.031,0.458-0.598,0.458-0.598L161,71.318
	c0,0,0.281-0.764,0.251-1.046c-0.023-0.224-0.325-0.745-0.325-0.745L155.351,61.406z"/>
<path fill="#F4E83F" d="M154.816,75.86l-1.644-2.422l-2.8-4.133l-2.707-3.995c0,0-0.245-0.451-0.496-0.412
	c-0.234,0.036-0.341,0.477-0.341,0.477l-1.435,4.909c0,0-0.248,0.849-0.204,1.155c0.035,0.242,0.388,0.85,0.388,0.85l6.147,9.492
	l2.332,3.6c0,0,0.388,0.776,0.717,0.746c0.235-0.022,0.361-0.508,0.361-0.508l1.904-4.64c0,0,0.35-0.836,0.318-1.143
	c-0.027-0.262-0.44-0.875-0.44-0.875L154.816,75.86z"/>
<path fill="#F4E83F" d="M176.338,72.916l-6.568-9.155c0,0-0.514-0.933-0.956-0.885c-0.355,0.038-0.648,0.748-0.648,0.748
	l-3.458,8.002c0,0-0.298,0.851-0.269,1.167c0.034,0.388,0.626,1.3,0.626,1.3l7.118,10.727l3.838,5.788c0,0,0.856,1.347,1.46,1.372
	c0.563,0.025,1.199-1.129,1.199-1.129l4.163-5.484c0,0,0.945-1.305,0.95-1.845c0.004-0.391-0.566-1.142-0.566-1.142L176.338,72.916z
	"/>
<path fill="#EC6531" d="M175.912,91.865l-3.604-5.359l-7.669-11.404c0,0-0.537-0.887-0.93-0.851
	c-0.293,0.027-0.416,0.626-0.416,0.626l-2.751,6.407c0,0-0.454,1.089-0.416,1.509c0.035,0.387,0.608,1.341,0.608,1.341l3.568,5.391
	l6.601,9.743c0,0,0.488,0.747,0.848,0.754c0.412,0.008,0.936-0.891,0.936-0.891l3.34-4.544c0,0,0.633-0.832,0.641-1.211
	C176.678,92.923,175.912,91.865,175.912,91.865"/>
<path fill="#C2242A" d="M164.335,90.813l-4.229-6.331c0,0-0.3-0.565-0.563-0.543c-0.202,0.017-0.357,0.405-0.357,0.405l-2.026,4.478
	c0,0-0.215,0.498-0.2,0.701c0.02,0.259,0.428,0.914,0.428,0.914l8.224,12.733l1.088,1.687c0,0,0.391,0.775,0.718,0.791
	c0.246,0.012,0.606-0.461,0.606-0.461l2.449-3.092c0,0,0.578-0.685,0.59-0.989c0.011-0.248-0.386-0.793-0.386-0.793L164.335,90.813z
	"/>
<path fill="#F4E83F" d="M220.63,36.199l-0.177-0.131l-2.076-1.557l-1.734-1.301l-3.221-2.415l-7.069-5.305
	c-0.366-0.273-0.803-0.418-1.243-0.437c-0.285-0.012-0.569,0.032-0.841,0.129c-0.058,0.02-0.118,0.038-0.176,0.065l-2.143,0.979
	l-5.049,2.307l-3.281,1.498l-1.775,0.813l-0.947,0.433l-2.688,1.227c-0.553,0.254-0.651,1.002-0.182,1.389l3.427,2.827l1.2,0.993
	l3.046,2.513l3.593,2.964l2.933,2.42c0.617,0.51,1.483,0.603,2.194,0.237l1.254-0.642l1.39-0.712l1.341-0.688l7.413-3.801
	l2.14-1.102l1.299-0.662l1.255-0.645c0.115-0.058,0.209-0.141,0.282-0.236C221.055,37.013,221.016,36.488,220.63,36.199"/>
<path fill="#0BAB92" d="M213.328,6.738c-0.465-0.127-1.041-0.284-1.687-0.46c-0.779-0.208-1.659-0.439-2.584-0.675
	c-2.25-0.571-4.746-1.157-6.599-1.454c-0.357-0.058-0.691-0.106-0.994-0.14c-0.645-0.073-1.157-0.089-1.464-0.026
	c-0.392,0.083-1.097,0.313-1.989,0.637c-1.403,0.506-3.269,1.24-5.122,1.991c-1.432,0.58-2.854,1.169-4.048,1.665
	c-0.724,0.301-1.364,0.57-1.87,0.783c-0.444,0.188-0.434,0.821,0.014,0.998l2.483,0.977l4.608,1.811l2.871,1.13
	c0.786,0.311,1.666,0.289,2.436-0.056l0.375-0.168l3.002-1.351l0.855-0.385l5.82-2.615l2.884-1.296l1.051-0.474
	C213.775,7.448,213.756,6.856,213.328,6.738"/>
<path fill="#6FBF58" d="M231.535,11.459c-0.857-0.236-2.083-0.575-3.477-0.944C223.62,9.329,217.515,7.794,216.481,8
	c-0.451,0.091-1.877,0.636-3.716,1.383c-0.966,0.393-2.05,0.844-3.165,1.311c-1.999,0.841-4.103,1.742-5.835,2.487
	c-0.298,0.13-0.583,0.252-0.856,0.37c-0.692,0.298-1.295,0.561-1.774,0.769c-0.41,0.178-0.382,0.766,0.043,0.903
	c0.541,0.174,1.23,0.394,2.018,0.642c0.298,0.095,0.613,0.195,0.94,0.297c2.04,0.643,4.506,1.404,6.647,2.033
	c0.982,0.289,1.894,0.551,2.663,0.754c0.322,0.086,0.617,0.161,0.884,0.229c0.643,0.156,1.111,0.25,1.323,0.25
	c0.056,0,0.13-0.011,0.225-0.032c1.575-0.343,8.282-3.462,12.765-5.591c1.194-0.569,2.23-1.068,2.968-1.423
	C232.023,12.185,231.975,11.58,231.535,11.459"/>
<path fill="#EC6531" d="M221.62,40.526c-0.088,0.005-0.181,0.026-0.271,0.071l-1.392,0.686l-1.303,0.642l-2.049,1.011l-7.587,3.735
	l-1.341,0.662l-1.37,0.672l-1.325,0.654c-0.735,0.361-1.233,1.084-1.312,1.898l-1.065,11.179c-0.082,0.847,0.152,1.695,0.653,2.38
	l1.016,1.393c0.446,0.608,1.275,0.791,1.935,0.423l3.302-1.828l1.196-0.663l1.379-0.766l4.216-2.336c0,0,2.709-1.355,3.116-2.844
	c0.065-0.24,0.19-0.85,0.353-1.707c0.238-1.262,0.563-3.059,0.902-4.993c0.207-1.169,0.42-2.385,0.625-3.567
	c0.307-1.781,0.598-3.472,0.82-4.77c0.076-0.444,0.147-0.844,0.201-1.183C222.395,40.838,222.024,40.505,221.62,40.526"/>
<path fill="#F5842D" d="M217.178,60.788l-4.976,2.751l-1.378,0.762l-1.2,0.667l-3.509,1.94c-0.591,0.332-0.477,0.664-0.072,1.209
	c0.486,0.656,1.386,1.663,1.494,2.281c0.25,1.424-0.369,2.713-1.258,3.285c-0.216,0.136-1.354,0.771-2.968,1.657
	c-0.546,0.3-1.151,0.631-1.786,0.98c-1.787,0.976-3.866,2.111-5.864,3.192c-0.916,0.498-1.811,0.981-2.655,1.437
	c-2.809,1.518-5.033,2.702-5.34,2.838c-0.698,0.307-4.871,5.503-6.665,7.764c-0.17,0.215,0.073,0.514,0.313,0.379
	c1.992-1.163,6.114-3.561,8.098-4.722c0.848-0.499,2.158-1.219,3.552-1.966c0.902-0.484,1.841-0.981,2.71-1.441
	c1.277-0.674,2.407-1.262,3.057-1.6c0.266-0.139,0.581,0.06,0.581,0.359v0.334c0,0.594,0.637,0.971,1.157,0.685l1.712-0.942
	l1.568-0.86l6.983-3.841l1.205-0.663l1.431-0.786l0.528-0.291c0.734-0.402,1.258-1.109,1.431-1.926l2.728-12.839
	C218.161,60.929,217.625,60.536,217.178,60.788"/>
<path fill="#FFC82C" d="M196.207,84.258c-0.17,0.093-0.354,0.197-0.555,0.308c-0.73,0.408-1.66,0.927-2.702,1.511
	c-4.977,2.8-12.518,7.081-13.315,7.48c-0.549,0.275-4.758,5.889-4.905,6.091c-0.196,0.263,0.128,0.585,0.419,0.432
	c0.07-0.037,0.141-0.078,0.215-0.115c0.524-0.282,0.058-0.034,0.818-0.456c3.835-2.123,10.052-5.596,12.579-6.988
	c0.443-0.245,1.342-0.766,1.469-0.905c0.344-0.375,4.595-5.041,5.381-5.944c0.346-0.398,0.658-0.758,0.91-1.052
	C196.695,84.413,196.442,84.13,196.207,84.258"/>
<path fill="#009058" d="M188.066,93.065l-12.032,6.955l-0.593,0.342c-0.391,0.224-0.885,0.428-1.345,0.66
	c-0.43,0.219-0.84,0.461-1.117,0.776l-3.627,4.522c-0.155,0.179,0.471,0.57,0.673,0.448c1.013-0.601,2.619-1.605,4.415-2.744
	c0.584-0.369,1.186-0.754,1.793-1.144c4.01-2.562,8.267-5.344,8.783-5.741c0.677-0.523,2.338-2.48,3.354-3.711
	C188.541,93.221,188.299,92.928,188.066,93.065"/>
<path fill="#08AB5B" d="M213.569,78.362l-0.094,0.054l-1.484,0.885L210.819,80l-6.943,4.135l-1.48,0.883l-2.358,1.405
	c-0.712,0.425-1.185,1.168-1.268,1.991l-0.978,9.779c-0.052,0.536,0.533,0.901,0.989,0.614l4.329-2.706l1.13-0.706l6.719-4.199
	l0.923-0.578l0.132-0.082c0.708-0.443,1.183-1.183,1.29-2.008l0.457-3.54l0.774-5.992C214.603,78.462,214.028,78.086,213.569,78.362
	"/>
<path fill="#FFC62F" d="M234.817,19.949l-0.17-4.114c-0.015-0.382-0.259-0.679-0.578-0.8c-0.21-0.078-0.451-0.083-0.682,0.021
	l-4.176,1.872l-9.985,4.481c-0.729,0.327-1.2,1.061-1.193,1.862l0.041,3.929l0.048,4.822c0.006,0.819,0.44,1.58,1.142,2.006
	l0.776,0.47l2.71,1.645c0.344,0.209,0.548,0.598,0.518,1.003l-0.28,3.959c-0.04,0.563,0.564,0.943,1.052,0.661l8.794-5.037
	l1.467-0.84c0.703-0.404,1.125-1.167,1.092-1.975L234.817,19.949z"/>
<path fill="#0AACCB" d="M236.98,61.2l-0.002-0.253c0-0.133-0.035-0.249-0.094-0.351c-0.192-0.341-0.648-0.486-1.014-0.246
	l-8.292,5.444l-2.052,1.346l-1.378,0.905l-1.215,0.797c-0.11,0.072-0.21,0.156-0.304,0.246c-0.498,0.459-0.78,1.114-0.76,1.798
	l0.463,15.068c0.017,0.575,0.659,0.904,1.137,0.584l2.077-1.396l1.549-1.041l1.549-1.04l2.15-1.447l5.161-3.469
	c0.682-0.456,1.094-1.231,1.091-2.056L236.98,61.2z"/>
<path fill="#17B9EC" d="M197.072,3.005l-5.086-1.066l-4.843-1.013l-0.638-0.134c-0.837-0.183-1.236-0.213-2.027,0.124l-6.16,2.576
	l-0.816,0.34l1.641,1.051l5.951,3.812c0.133-0.032,0.266-0.07,0.392-0.123l3.126-1.299l4.079-1.697l4.381-1.823
	C197.446,3.597,197.468,3.091,197.072,3.005"/>
<path fill="#0BAB92" d="M181.696,12.04l2.451-1.075c0.533-0.235,0.609-0.96,0.134-1.299l-4.321-3.09l-6.219-4.437
	c-0.025-0.021-0.056-0.037-0.082-0.054c-0.653-0.427-1.487-0.514-2.215-0.217l-3.819,1.557l-0.389,0.159l-5.117,2.086l5.123,6.775
	l1.096,1.451l1.239,1.644l0.743,0.981l0.291,0.383l8.758-3.844L181.696,12.04z"/>
<path fill="#FFC82C" d="M201.226,22.125c-0.038-0.045-0.08-0.088-0.13-0.127l-6.211-4.801l-4.876-3.766l-0.693-0.535
	c-0.645-0.5-1.513-0.613-2.266-0.302l-4.675,1.946l-2.308,0.959l-8.006,3.324l4.728,6.255l4.879,4.168l0.869,0.741
	c0.031,0.026,0.06,0.044,0.088,0.066c0.394,0.301,0.875,0.453,1.359,0.437c0.262-0.009,0.523-0.061,0.771-0.168l0.629-0.273
	l5.091-2.199l0.909-0.394l1.549-0.668l3.407-1.474l4.59-1.983c0.216-0.095,0.358-0.265,0.427-0.462
	C201.44,22.625,201.4,22.341,201.226,22.125"/>
<path fill="#CADB46" d="M217.413,69.85c0.062-0.312,0.292-0.5,0.292-0.5c0.25,0,3.229-0.187,3.312,0.625
	c0.047,0.456,0.625,15.125,0.625,15.125c0.021,1.291-0.02,2.271-1.166,1.646l-2.709-1.271c-1.208-0.584-2.417-0.979-2.312-1.562
	C215.936,81.226,217.125,71.292,217.413,69.85"/>
<path fill="#C2242A" d="M195.268,87.287c0.193-0.253,0.75-0.937,0.75-0.937c0.219-0.407,2.281,0.468,2.281,0.906
	c0,0.458-0.926,9.135-0.926,9.135c0.02,1.292-0.021,2.271-1.168,1.646l-2.781-2.312c-1.25-1.126-2.781-2.251-2.593-2.813
	C191.206,91.787,194.456,88.349,195.268,87.287"/>
<path fill="#0AACCB" d="M219.122,60.453c0.084-0.833,0.917-1.5,0.917-1.5c0.458-0.459,0.542-3.854,0.625-3.041
	c0.047,0.456-0.041,9.146-0.041,9.146c0.02,1.291,0.23,1.729-1.167,1.646c0,0-1.528,0.219-1.375-0.626
	C218.665,62.87,218.974,61.917,219.122,60.453"/>
<path fill="#090B0B" d="M196.007,83.729c0,0,0.889-0.466,1.456-0.693c0.453-0.227,2.381-1.701,2.381-1.701l5.132-6.907
	c0,0,0.044-0.122,0.084-0.236c0.042-0.119-3.08,1.475-3.08,1.475l4.327-2.893c0,0,0.612-0.467,0.567-0.283
	c-0.034,0.141-0.638,1.12-0.638,1.12l-7.866,11.267l-0.112-1.063L196.007,83.729z"/>
<polygon fill="#0D84C7" points="52.338,26.259 52.338,33.393 70.793,33.439 63.91,52.24 72.2,52.24 79.579,31.268 79.579,26.259 "/>
<path fill="#0D84C7" d="M34.842,52.24h-7.994V36.423h7.994V52.24z M49.077,52.24h-7.871V33.438H26.798v-7.179h18.8h3.479V52.24z"/>
<polygon fill="#0D84C7" points="93.93,40.521 86.036,40.521 86.036,33.439 82.656,33.439 82.656,26.259 93.93,26.259 93.93,29.294 
	"/>
<polygon fill="#0D84C7" points="119.516,31.268 119.516,26.259 104.91,26.259 104.91,22.736 97.04,22.736 97.04,33.439 
	110.388,33.439 103.257,52.24 111.941,52.24 "/>
<polygon fill="#0D84C7" points="120.9,26.259 120.9,33.393 139.356,33.439 132.471,52.24 140.762,52.24 148.139,31.268 
	148.139,26.259 "/>
<rect x="122.936" y="37.84" fill="#1395D3" width="8.093" height="26.012"/>
<rect x="97.039" y="15.588" fill="#0D84C7" width="7.844" height="9.121"/>
</svg>
