<?xml version="1.0" standalone="no"?>
<!DOCTYPE svg PUBLIC "-//W3C//DTD SVG 20010904//EN"
 "http://www.w3.org/TR/2001/REC-SVG-20010904/DTD/svg10.dtd">
<svg version="1.0" xmlns="http://www.w3.org/2000/svg"
 width="260.000000pt" height="260.000000pt" viewBox="0 0 260.000000 260.000000"
 preserveAspectRatio="xMidYMid meet">
<metadata>
Created by potrace 1.11, written by Peter Selinger 2001-2013
</metadata>
<g transform="translate(0.000000,260.000000) scale(0.100000,-0.100000)"
fill="#000000" stroke="none">
<path d="M1150 2593 c-303 -50 -513 -145 -713 -323 -230 -204 -378 -479 -425
-790 -9 -59 -9 -280 0 -350 43 -342 227 -657 503 -864 182 -137 354 -211 582
-250 104 -19 353 -14 453 8 272 59 491 178 672 362 201 205 316 434 363 719
13 79 14 328 1 390 -40 197 -60 257 -132 401 -130 260 -371 484 -649 602 -75
32 -225 75 -304 88 -45 7 -317 13 -351 7z m278 -238 c185 -21 360 -93 519
-212 202 -152 361 -412 398 -653 4 -25 9 -54 12 -65 6 -32 6 -206 -1 -255 -21
-148 -53 -244 -123 -377 l-46 -88 -1 -145 -1 -145 -151 -1 c-135 -1 -155 -3
-180 -21 -81 -57 -237 -116 -374 -140 -463 -82 -929 157 -1135 582 -39 81 -81
206 -90 267 -3 24 -8 57 -11 73 -8 44 -7 203 1 255 23 151 59 261 122 379 l46
84 1 146 1 146 150 1 c145 1 152 2 190 27 100 66 293 130 428 143 40 3 73 7
74 8 4 3 118 -3 171 -9z"/>
<path d="M856 1740 c-1 -3 -2 -102 -1 -220 l0 -215 223 -3 222 -2 2 -222 3
-223 210 0 c116 -1 215 0 220 2 6 2 10 84 10 221 l0 217 -222 3 -223 2 -2 223
-3 222 -218 0 c-121 0 -220 -2 -221 -5z"/>
</g>
</svg>
