<svg width="140" height="30" viewBox="0 0 140 30" fill="none" xmlns="http://www.w3.org/2000/svg">
<circle cx="15" cy="15" r="13.6364" stroke="#84CAE7" stroke-width="2.72727"/>
<rect x="9.88635" y="9.88635" width="5.11364" height="5.11364" fill="#4CE0D2"/>
<rect x="15" y="15" width="5.11364" height="5.11364" fill="#4CE0D2"/>
<rect x="20.1136" y="20.1136" width="5.11364" height="5.11364" fill="#143634"/>
<rect x="4.77271" y="4.77274" width="5.11364" height="5.11364" fill="#143634"/>
<path d="M43.1618 21.9224C41.3018 21.9224 40.0018 21.3624 39.2618 20.2424C38.5418 19.1024 38.1818 17.5824 38.1818 15.6824C38.1818 13.6824 38.5518 12.1124 39.2918 10.9724C40.0518 9.83245 41.3418 9.26244 43.1618 9.26244C43.9418 9.26244 44.5818 9.38245 45.0818 9.62245C45.6018 9.86245 46.0118 10.1424 46.3118 10.4624C46.6118 10.7824 46.8218 11.0724 46.9418 11.3324C47.0818 11.5724 47.1518 11.7024 47.1518 11.7224H47.2118V4.73245H50.9618V21.6224H47.7818L47.2118 19.6724H47.1518C47.1518 19.7124 47.0718 19.8524 46.9118 20.0924C46.7718 20.3124 46.5418 20.5624 46.2218 20.8424C45.9218 21.1224 45.5118 21.3724 44.9918 21.5924C44.4918 21.8124 43.8818 21.9224 43.1618 21.9224ZM44.4518 18.8924C45.5518 18.8924 46.2818 18.5824 46.6418 17.9624C47.0218 17.3224 47.2118 16.5524 47.2118 15.6524C47.2118 14.7724 47.0318 14.0224 46.6718 13.4024C46.3118 12.7624 45.5818 12.4424 44.4818 12.4424C43.7218 12.4424 43.1418 12.6024 42.7418 12.9224C42.3418 13.2224 42.0718 13.6224 41.9318 14.1224C41.7918 14.6024 41.7218 15.1124 41.7218 15.6524C41.7218 16.2124 41.7818 16.7424 41.9018 17.2424C42.0418 17.7224 42.3018 18.1224 42.6818 18.4424C43.0818 18.7424 43.6718 18.8924 44.4518 18.8924Z" fill="#84CAE7"/>
<path d="M55.752 7.85245C55.012 7.87245 54.512 7.70245 54.252 7.34245C54.012 6.96245 53.892 6.51244 53.892 5.99245C53.892 5.49245 54.012 5.06245 54.252 4.70245C54.512 4.34245 55.012 4.16245 55.752 4.16245C56.472 4.16245 56.952 4.34245 57.192 4.70245C57.452 5.06245 57.582 5.49245 57.582 5.99245C57.582 6.53245 57.452 6.98245 57.192 7.34245C56.952 7.68245 56.472 7.85245 55.752 7.85245ZM53.952 21.6224V9.26244H57.582V21.6224H53.952Z" fill="#84CAE7"/>
<path d="M63.8117 25.8074V23.1817H68.8817V19.6724H68.8217C68.8017 19.7124 68.7217 19.8524 68.5817 20.0924C68.4617 20.3124 68.2417 20.5624 67.9217 20.8424C67.6217 21.1224 67.2217 21.3724 66.7217 21.5924C66.2417 21.8124 65.6317 21.9224 64.8917 21.9224C63.0517 21.9224 61.7517 21.3524 60.9917 20.2124C60.2517 19.0724 59.8817 17.5524 59.8817 15.6524C59.8817 13.6524 60.2617 12.0924 61.0217 10.9724C61.7817 9.83245 63.0717 9.26244 64.8917 9.26244C65.6717 9.26244 66.3117 9.38245 66.8117 9.62245C67.3117 9.86245 67.7017 10.1424 67.9817 10.4624C68.2817 10.7824 68.4917 11.0724 68.6117 11.3324C68.7317 11.5724 68.8017 11.7024 68.8217 11.7224H68.8817V9.26244H72.6017V22.1324C72.6017 24.1124 72.3709 24.3924 71.5909 25.1324C70.8109 25.8924 69.4717 25.8074 67.8917 25.8074H63.8117ZM66.0917 18.8924C67.1917 18.8924 67.9217 18.5824 68.2817 17.9624C68.6617 17.3224 68.8517 16.5524 68.8517 15.6524C68.8517 14.7724 68.6717 14.0224 68.3117 13.4024C67.9517 12.7624 67.2317 12.4424 66.1517 12.4424C65.3717 12.4424 64.7817 12.6024 64.3817 12.9224C64.0017 13.2224 63.7417 13.6224 63.6017 14.1224C63.4617 14.6024 63.3917 15.1124 63.3917 15.6524C63.3917 16.2124 63.4517 16.7424 63.5717 17.2424C63.7117 17.7224 63.9717 18.1224 64.3517 18.4424C64.7517 18.7424 65.3317 18.8924 66.0917 18.8924Z" fill="#84CAE7"/>
<path d="M77.0215 7.85245C76.2815 7.87245 75.7815 7.70245 75.5215 7.34245C75.2815 6.96245 75.1615 6.51244 75.1615 5.99245C75.1615 5.49245 75.2815 5.06245 75.5215 4.70245C75.7815 4.34245 76.2815 4.16245 77.0215 4.16245C77.7415 4.16245 78.2215 4.34245 78.4615 4.70245C78.7215 5.06245 78.8515 5.49245 78.8515 5.99245C78.8515 6.53245 78.7215 6.98245 78.4615 7.34245C78.2215 7.68245 77.7415 7.85245 77.0215 7.85245ZM75.2215 21.6224V9.26244H78.8515V21.6224H75.2215Z" fill="#84CAE7"/>
<path d="M96.7512 13.1624C96.7512 15.3824 96.3312 17.1124 95.4912 18.3524C94.6712 19.5724 93.5112 20.4224 92.0112 20.9024C90.5112 21.3824 88.7612 21.6224 86.7612 21.6224H82.3812V4.73245H86.7612C88.7612 4.73245 90.5112 5.05245 92.0112 5.69245C93.5112 6.31245 94.6712 7.24245 95.4912 8.48245C96.3312 9.72245 96.7512 11.2824 96.7512 13.1624ZM83.7612 20.4224H87.0012C88.6612 20.4224 90.1112 20.2324 91.3512 19.8524C92.6112 19.4724 93.5812 18.7624 94.2612 17.7224C94.9612 16.6824 95.3112 15.1624 95.3112 13.1624C95.3112 11.5224 94.9612 10.1724 94.2612 9.11245C93.5812 8.03245 92.6112 7.24245 91.3512 6.74245C90.1112 6.22245 88.6612 5.96245 87.0012 5.96245H83.7612V20.4224Z" fill="#84CAE7"/>
<path d="M100.145 8.15245C99.8049 8.17245 99.5749 8.08245 99.4549 7.88244C99.3349 7.68244 99.2749 7.44245 99.2749 7.16245C99.2749 6.90245 99.3349 6.68245 99.4549 6.50245C99.5749 6.32245 99.8049 6.23245 100.145 6.23245C100.465 6.23245 100.685 6.32245 100.805 6.50245C100.925 6.68245 100.985 6.90245 100.985 7.16245C100.985 7.46245 100.925 7.70245 100.805 7.88244C100.685 8.06244 100.465 8.15245 100.145 8.15245ZM99.4249 21.6224V9.44245H100.775V21.6224H99.4249Z" fill="#84CAE7"/>
<path d="M106.479 25.8335V24.5435H112.899V18.6524H112.839C112.799 18.7924 112.679 19.0324 112.479 19.3724C112.299 19.7124 112.029 20.0824 111.669 20.4824C111.309 20.8824 110.839 21.2224 110.259 21.5024C109.699 21.7824 109.019 21.9224 108.219 21.9224C107.059 21.9224 106.069 21.6424 105.249 21.0824C104.449 20.5224 103.839 19.7724 103.419 18.8324C102.999 17.8924 102.789 16.8424 102.789 15.6824C102.789 14.5024 102.999 13.4424 103.419 12.5024C103.859 11.5624 104.479 10.8224 105.279 10.2824C106.099 9.72245 107.089 9.44245 108.249 9.44245C109.069 9.44245 109.759 9.59244 110.319 9.89244C110.899 10.1724 111.359 10.5124 111.699 10.9124C112.059 11.2924 112.319 11.6624 112.479 12.0224C112.659 12.3624 112.769 12.6024 112.809 12.7424H112.869L112.899 9.44245H114.309V24.2324C114.309 25.2271 113.864 25.8961 112.539 25.8335H106.479ZM108.399 20.6324C109.619 20.6324 110.659 20.2024 111.519 19.3424C112.399 18.4824 112.839 17.2624 112.839 15.6824C112.839 14.1424 112.429 12.9424 111.609 12.0824C110.789 11.2024 109.779 10.7624 108.579 10.7624C107.579 10.7624 106.749 11.0024 106.089 11.4824C105.429 11.9424 104.939 12.5524 104.619 13.3124C104.299 14.0524 104.139 14.8424 104.139 15.6824C104.139 16.5224 104.279 17.3224 104.559 18.0824C104.859 18.8424 105.319 19.4624 105.939 19.9424C106.579 20.4024 107.399 20.6324 108.399 20.6324Z" fill="#84CAE7"/>
<path d="M118.309 8.15245C117.969 8.17245 117.739 8.08245 117.619 7.88244C117.499 7.68244 117.439 7.44245 117.439 7.16245C117.439 6.90245 117.499 6.68245 117.619 6.50245C117.739 6.32245 117.969 6.23245 118.309 6.23245C118.629 6.23245 118.849 6.32245 118.969 6.50245C119.089 6.68245 119.149 6.90245 119.149 7.16245C119.149 7.46245 119.089 7.70245 118.969 7.88244C118.849 8.06244 118.629 8.15245 118.309 8.15245ZM117.589 21.6224V9.44245H118.939V21.6224H117.589Z" fill="#84CAE7"/>
<path d="M124.814 21.6224C124.174 21.6224 123.764 21.4424 123.584 21.0824C123.404 20.7224 123.314 20.2924 123.314 19.7924V10.5524H121.304V9.44245C122.024 9.44245 122.524 9.40245 122.804 9.32245C123.084 9.22245 123.254 8.95245 123.314 8.51245C123.374 8.07245 123.404 7.33245 123.404 6.29245H124.634V9.44245H127.484V10.5524H124.634V20.4524H127.484V21.6224H124.814Z" fill="#84CAE7"/>
<path d="M134.735 21.9224C133.715 21.9224 132.885 21.7524 132.245 21.4124C131.605 21.0524 131.115 20.6324 130.775 20.1524C130.435 19.6724 130.195 19.2124 130.055 18.7724C129.935 18.3324 129.875 18.0124 129.875 17.8124H131.225C131.225 17.8324 131.235 18.0024 131.255 18.3224C131.295 18.6224 131.415 18.9724 131.615 19.3724C131.815 19.7724 132.155 20.1224 132.635 20.4224C133.135 20.7024 133.845 20.8424 134.765 20.8424C135.405 20.8424 136.005 20.7724 136.565 20.6324C137.145 20.4724 137.605 20.2324 137.945 19.9124C138.305 19.5724 138.485 19.1324 138.485 18.5924C138.465 17.9524 138.255 17.4624 137.855 17.1224C137.455 16.7624 136.935 16.4924 136.295 16.3124C135.655 16.1324 134.985 15.9724 134.285 15.8324C133.585 15.6924 132.915 15.5024 132.275 15.2624C131.655 15.0224 131.145 14.6724 130.745 14.2124C130.365 13.7524 130.185 13.1224 130.205 12.3224C130.205 11.3824 130.645 10.6124 131.525 10.0124C132.405 9.41245 133.535 9.11245 134.915 9.11245C135.435 9.11245 135.975 9.17245 136.535 9.29245C137.115 9.41245 137.655 9.62245 138.155 9.92245C138.655 10.2224 139.055 10.6424 139.355 11.1824C139.655 11.7024 139.785 12.3724 139.745 13.1924H138.425C138.465 12.5724 138.365 12.0724 138.125 11.6924C137.885 11.2924 137.565 10.9924 137.165 10.7924C136.785 10.5924 136.385 10.4624 135.965 10.4024C135.545 10.3224 135.165 10.2824 134.825 10.2824C133.885 10.2824 133.085 10.4624 132.425 10.8224C131.785 11.1624 131.465 11.6724 131.465 12.3524C131.465 12.9724 131.665 13.4424 132.065 13.7624C132.465 14.0624 132.985 14.3024 133.625 14.4824C134.265 14.6424 134.935 14.8024 135.635 14.9624C136.335 15.1024 136.995 15.3024 137.615 15.5624C138.255 15.8024 138.775 16.1624 139.175 16.6424C139.595 17.1224 139.805 17.7924 139.805 18.6524C139.805 19.4124 139.575 20.0424 139.115 20.5424C138.655 21.0224 138.035 21.3724 137.255 21.5924C136.495 21.8124 135.655 21.9224 134.735 21.9224Z" fill="#84CAE7"/>
</svg>
